<svg width="66" height="41" viewBox="0 0 66 41" fill="none" xmlns="http://www.w3.org/2000/svg">
<path d="M32.3254 8.31371H65.3606V6.65268C65.3606 5.15353 64.7651 3.71566 63.7049 2.65566C62.6449 1.5955 61.2071 1 59.7079 1H6.65268C5.15353 1 3.71566 1.5955 2.65566 2.65566C1.5955 3.71566 1 5.15353 1 6.65268V34.3537C1 35.8529 1.5955 37.2908 2.65566 38.3508C3.71566 39.4109 5.15353 40.0064 6.65268 40.0064H8.47623V9.40914C8.47623 9.11854 8.59162 8.83997 8.79706 8.63453C9.00249 8.4291 9.28106 8.31371 9.57166 8.31371H11.2814C11.572 8.31371 11.8506 8.4291 12.056 8.63453C12.2615 8.83997 12.3769 9.11854 12.3769 9.40914V40.0064H19.8531V9.40914C19.8531 9.11854 19.9685 8.83997 20.1739 8.63453C20.3794 8.4291 20.6579 8.31371 20.9485 8.31371H22.6583C22.9489 8.31371 23.2275 8.4291 23.4329 8.63453C23.6384 8.83997 23.7537 9.11854 23.7537 9.40914V40.0064H31.23V9.40914C31.23 9.11854 31.3454 8.83997 31.5508 8.63453C31.7562 8.4291 32.0348 8.31371 32.3254 8.31371Z" fill="white" stroke="white" stroke-width="0.00757639" stroke-miterlimit="2" stroke-linejoin="round"/>
<path d="M57.8839 12.2138V31.678C57.8839 31.8219 57.8557 31.9644 57.8006 32.0972C57.7455 32.2301 57.6649 32.3509 57.5631 32.4526C57.4614 32.5544 57.3406 32.635 57.2077 32.6901C57.0749 32.7452 56.9323 32.7735 56.7885 32.7735H55.0787C54.9349 32.7735 54.7924 32.7452 54.6596 32.6901C54.5266 32.635 54.4059 32.5544 54.3041 32.4526C54.2024 32.3509 54.1218 32.2301 54.0667 32.0972C54.0116 31.9644 53.9833 31.8219 53.9833 31.678V12.2138H46.5071V31.678C46.5071 31.8219 46.4788 31.9644 46.4237 32.0972C46.3686 32.2301 46.288 32.3509 46.1862 32.4526C46.0845 32.5544 45.9637 32.635 45.8308 32.6901C45.698 32.7452 45.5555 32.7735 45.4116 32.7735H43.7018C43.558 32.7735 43.4155 32.7452 43.2827 32.6901C43.1497 32.635 43.029 32.5544 42.9272 32.4526C42.8255 32.3509 42.7449 32.2301 42.6898 32.0972C42.6347 31.9644 42.6064 31.8219 42.6064 31.678V12.2138H35.1302V40.0059H59.7075C62.8296 40.0059 65.3602 37.4754 65.3602 35.6534V12.2138H57.8839Z" fill="white" stroke="white" stroke-width="0.00757639" stroke-miterlimit="2" stroke-linejoin="round"/>
</svg>
